<mxfile host="Electron" modified="2024-02-08T07:55:13.639Z" agent="Mozilla/5.0 (Windows NT 10.0; Win64; x64) AppleWebKit/537.36 (KHTML, like Gecko) draw.io/22.1.11 Chrome/114.0.5735.289 Electron/25.9.8 Safari/537.36" etag="z5th56ruYsPMlxOPTUtE" version="22.1.11" type="device">
  <diagram name="Страница — 1" id="_Jk5C1f3Ej49qAtIbOmN">
    <mxGraphModel dx="1036" dy="606" grid="1" gridSize="10" guides="1" tooltips="1" connect="1" arrows="1" fold="1" page="1" pageScale="1" pageWidth="827" pageHeight="1169" math="0" shadow="0">
      <root>
        <mxCell id="0" />
        <mxCell id="1" parent="0" />
        <mxCell id="pSkCP-MCvUBBRDY2Ks71-3" value="" style="edgeStyle=orthogonalEdgeStyle;rounded=0;orthogonalLoop=1;jettySize=auto;html=1;" edge="1" parent="1" source="pSkCP-MCvUBBRDY2Ks71-1" target="pSkCP-MCvUBBRDY2Ks71-2">
          <mxGeometry relative="1" as="geometry" />
        </mxCell>
        <mxCell id="pSkCP-MCvUBBRDY2Ks71-1" value="начало" style="ellipse;whiteSpace=wrap;html=1;" vertex="1" parent="1">
          <mxGeometry x="354" y="80" width="96" height="50" as="geometry" />
        </mxCell>
        <mxCell id="pSkCP-MCvUBBRDY2Ks71-5" value="" style="edgeStyle=orthogonalEdgeStyle;rounded=0;orthogonalLoop=1;jettySize=auto;html=1;" edge="1" parent="1" source="pSkCP-MCvUBBRDY2Ks71-2" target="pSkCP-MCvUBBRDY2Ks71-4">
          <mxGeometry relative="1" as="geometry" />
        </mxCell>
        <mxCell id="pSkCP-MCvUBBRDY2Ks71-2" value="cin &amp;gt;&amp;gt; n&amp;nbsp; &amp;gt;&amp;gt; k;" style="shape=parallelogram;perimeter=parallelogramPerimeter;whiteSpace=wrap;html=1;fixedSize=1;" vertex="1" parent="1">
          <mxGeometry x="343" y="160" width="118" height="40" as="geometry" />
        </mxCell>
        <mxCell id="pSkCP-MCvUBBRDY2Ks71-7" value="" style="edgeStyle=orthogonalEdgeStyle;rounded=0;orthogonalLoop=1;jettySize=auto;html=1;" edge="1" parent="1" source="pSkCP-MCvUBBRDY2Ks71-4" target="pSkCP-MCvUBBRDY2Ks71-6">
          <mxGeometry relative="1" as="geometry" />
        </mxCell>
        <mxCell id="pSkCP-MCvUBBRDY2Ks71-16" style="edgeStyle=orthogonalEdgeStyle;rounded=0;orthogonalLoop=1;jettySize=auto;html=1;entryX=0.539;entryY=0.006;entryDx=0;entryDy=0;entryPerimeter=0;" edge="1" parent="1" source="pSkCP-MCvUBBRDY2Ks71-4" target="pSkCP-MCvUBBRDY2Ks71-8">
          <mxGeometry relative="1" as="geometry">
            <Array as="points">
              <mxPoint x="550" y="250" />
              <mxPoint x="550" y="370" />
              <mxPoint x="414" y="370" />
            </Array>
          </mxGeometry>
        </mxCell>
        <mxCell id="pSkCP-MCvUBBRDY2Ks71-4" value="for (int i = 0; i &amp;lt; n; i++) {" style="shape=hexagon;perimeter=hexagonPerimeter2;whiteSpace=wrap;html=1;fixedSize=1;" vertex="1" parent="1">
          <mxGeometry x="318" y="230" width="168" height="40" as="geometry" />
        </mxCell>
        <mxCell id="pSkCP-MCvUBBRDY2Ks71-15" style="edgeStyle=orthogonalEdgeStyle;rounded=0;orthogonalLoop=1;jettySize=auto;html=1;entryX=0;entryY=0.5;entryDx=0;entryDy=0;" edge="1" parent="1" source="pSkCP-MCvUBBRDY2Ks71-6" target="pSkCP-MCvUBBRDY2Ks71-4">
          <mxGeometry relative="1" as="geometry">
            <Array as="points">
              <mxPoint x="402" y="350" />
              <mxPoint x="298" y="350" />
              <mxPoint x="298" y="250" />
            </Array>
          </mxGeometry>
        </mxCell>
        <mxCell id="pSkCP-MCvUBBRDY2Ks71-6" value="cin &amp;gt;&amp;gt; m[i]; }" style="shape=parallelogram;perimeter=parallelogramPerimeter;whiteSpace=wrap;html=1;fixedSize=1;" vertex="1" parent="1">
          <mxGeometry x="352.5" y="310" width="99" height="30" as="geometry" />
        </mxCell>
        <mxCell id="pSkCP-MCvUBBRDY2Ks71-11" value="" style="edgeStyle=orthogonalEdgeStyle;rounded=0;orthogonalLoop=1;jettySize=auto;html=1;" edge="1" parent="1" source="pSkCP-MCvUBBRDY2Ks71-8" target="pSkCP-MCvUBBRDY2Ks71-10">
          <mxGeometry relative="1" as="geometry" />
        </mxCell>
        <mxCell id="pSkCP-MCvUBBRDY2Ks71-8" value="cout &amp;lt;&amp;lt; &quot;Распечатанный массив ок k до k - 1:&amp;nbsp; &quot;;" style="shape=parallelogram;perimeter=parallelogramPerimeter;whiteSpace=wrap;html=1;fixedSize=1;" vertex="1" parent="1">
          <mxGeometry x="252" y="380" width="300" height="35" as="geometry" />
        </mxCell>
        <mxCell id="pSkCP-MCvUBBRDY2Ks71-13" value="" style="edgeStyle=orthogonalEdgeStyle;rounded=0;orthogonalLoop=1;jettySize=auto;html=1;" edge="1" parent="1" source="pSkCP-MCvUBBRDY2Ks71-10" target="pSkCP-MCvUBBRDY2Ks71-12">
          <mxGeometry relative="1" as="geometry" />
        </mxCell>
        <mxCell id="pSkCP-MCvUBBRDY2Ks71-25" style="edgeStyle=orthogonalEdgeStyle;rounded=0;orthogonalLoop=1;jettySize=auto;html=1;entryX=0.5;entryY=0;entryDx=0;entryDy=0;" edge="1" parent="1" source="pSkCP-MCvUBBRDY2Ks71-10" target="pSkCP-MCvUBBRDY2Ks71-24">
          <mxGeometry relative="1" as="geometry">
            <Array as="points">
              <mxPoint x="540" y="450" />
              <mxPoint x="540" y="580" />
              <mxPoint x="419" y="580" />
              <mxPoint x="419" y="610" />
            </Array>
          </mxGeometry>
        </mxCell>
        <mxCell id="pSkCP-MCvUBBRDY2Ks71-10" value="for (int i = 0; i &amp;lt;= n - k; i++) {" style="shape=hexagon;perimeter=hexagonPerimeter2;whiteSpace=wrap;html=1;fixedSize=1;" vertex="1" parent="1">
          <mxGeometry x="303" y="430" width="197" height="40" as="geometry" />
        </mxCell>
        <mxCell id="pSkCP-MCvUBBRDY2Ks71-14" style="edgeStyle=orthogonalEdgeStyle;rounded=0;orthogonalLoop=1;jettySize=auto;html=1;entryX=0;entryY=0.5;entryDx=0;entryDy=0;" edge="1" parent="1" source="pSkCP-MCvUBBRDY2Ks71-12" target="pSkCP-MCvUBBRDY2Ks71-10">
          <mxGeometry relative="1" as="geometry">
            <Array as="points">
              <mxPoint x="402" y="570" />
              <mxPoint x="283" y="570" />
              <mxPoint x="283" y="450" />
            </Array>
          </mxGeometry>
        </mxCell>
        <mxCell id="pSkCP-MCvUBBRDY2Ks71-12" value="cout &amp;lt;&amp;lt; m[(k - 1) + i] &amp;lt;&amp;lt; &quot; &quot;;" style="shape=parallelogram;perimeter=parallelogramPerimeter;whiteSpace=wrap;html=1;fixedSize=1;" vertex="1" parent="1">
          <mxGeometry x="313" y="500" width="178" height="40" as="geometry" />
        </mxCell>
        <mxCell id="pSkCP-MCvUBBRDY2Ks71-27" value="" style="edgeStyle=orthogonalEdgeStyle;rounded=0;orthogonalLoop=1;jettySize=auto;html=1;" edge="1" parent="1" source="pSkCP-MCvUBBRDY2Ks71-24" target="pSkCP-MCvUBBRDY2Ks71-26">
          <mxGeometry relative="1" as="geometry" />
        </mxCell>
        <mxCell id="pSkCP-MCvUBBRDY2Ks71-24" value="for (int i = 0; i &amp;lt;&amp;nbsp; (k - 1); i++) {" style="shape=hexagon;perimeter=hexagonPerimeter2;whiteSpace=wrap;html=1;fixedSize=1;" vertex="1" parent="1">
          <mxGeometry x="323" y="610" width="182" height="40" as="geometry" />
        </mxCell>
        <mxCell id="pSkCP-MCvUBBRDY2Ks71-28" style="edgeStyle=orthogonalEdgeStyle;rounded=0;orthogonalLoop=1;jettySize=auto;html=1;entryX=0;entryY=0.5;entryDx=0;entryDy=0;" edge="1" parent="1" source="pSkCP-MCvUBBRDY2Ks71-26" target="pSkCP-MCvUBBRDY2Ks71-24">
          <mxGeometry relative="1" as="geometry">
            <Array as="points">
              <mxPoint x="411" y="750" />
              <mxPoint x="303" y="750" />
              <mxPoint x="303" y="630" />
            </Array>
          </mxGeometry>
        </mxCell>
        <mxCell id="pSkCP-MCvUBBRDY2Ks71-26" value="cout &lt;&lt; m[i] &lt;&lt; &quot; &quot;;" style="shape=parallelogram;perimeter=parallelogramPerimeter;whiteSpace=wrap;html=1;fixedSize=1;" vertex="1" parent="1">
          <mxGeometry x="331" y="680" width="159" height="40" as="geometry" />
        </mxCell>
        <mxCell id="pSkCP-MCvUBBRDY2Ks71-34" value="" style="edgeStyle=orthogonalEdgeStyle;rounded=0;orthogonalLoop=1;jettySize=auto;html=1;" edge="1" parent="1" source="pSkCP-MCvUBBRDY2Ks71-29" target="pSkCP-MCvUBBRDY2Ks71-33">
          <mxGeometry relative="1" as="geometry" />
        </mxCell>
        <mxCell id="pSkCP-MCvUBBRDY2Ks71-29" value="cout &amp;lt;&amp;lt; endl;" style="shape=parallelogram;perimeter=parallelogramPerimeter;whiteSpace=wrap;html=1;fixedSize=1;" vertex="1" parent="1">
          <mxGeometry x="354" y="800" width="107.5" height="40" as="geometry" />
        </mxCell>
        <mxCell id="pSkCP-MCvUBBRDY2Ks71-31" style="edgeStyle=orthogonalEdgeStyle;rounded=0;orthogonalLoop=1;jettySize=auto;html=1;entryX=0.658;entryY=0.055;entryDx=0;entryDy=0;entryPerimeter=0;" edge="1" parent="1" source="pSkCP-MCvUBBRDY2Ks71-24" target="pSkCP-MCvUBBRDY2Ks71-29">
          <mxGeometry relative="1" as="geometry">
            <Array as="points">
              <mxPoint x="530" y="630" />
              <mxPoint x="530" y="770" />
              <mxPoint x="423" y="770" />
              <mxPoint x="423" y="792" />
              <mxPoint x="425" y="792" />
            </Array>
          </mxGeometry>
        </mxCell>
        <mxCell id="pSkCP-MCvUBBRDY2Ks71-36" value="" style="edgeStyle=orthogonalEdgeStyle;rounded=0;orthogonalLoop=1;jettySize=auto;html=1;" edge="1" parent="1" source="pSkCP-MCvUBBRDY2Ks71-33" target="pSkCP-MCvUBBRDY2Ks71-35">
          <mxGeometry relative="1" as="geometry" />
        </mxCell>
        <mxCell id="pSkCP-MCvUBBRDY2Ks71-33" value="cout &amp;lt;&amp;lt; &quot;Распечатанный массив ок k до k + 1:&amp;nbsp; &quot;;" style="shape=parallelogram;perimeter=parallelogramPerimeter;whiteSpace=wrap;html=1;fixedSize=1;" vertex="1" parent="1">
          <mxGeometry x="252" y="870" width="312.25" height="40" as="geometry" />
        </mxCell>
        <mxCell id="pSkCP-MCvUBBRDY2Ks71-38" value="" style="edgeStyle=orthogonalEdgeStyle;rounded=0;orthogonalLoop=1;jettySize=auto;html=1;" edge="1" parent="1" source="pSkCP-MCvUBBRDY2Ks71-35" target="pSkCP-MCvUBBRDY2Ks71-37">
          <mxGeometry relative="1" as="geometry" />
        </mxCell>
        <mxCell id="pSkCP-MCvUBBRDY2Ks71-44" value="" style="edgeStyle=orthogonalEdgeStyle;rounded=0;orthogonalLoop=1;jettySize=auto;html=1;" edge="1" parent="1" source="pSkCP-MCvUBBRDY2Ks71-35" target="pSkCP-MCvUBBRDY2Ks71-43">
          <mxGeometry relative="1" as="geometry">
            <Array as="points">
              <mxPoint x="510" y="965" />
              <mxPoint x="510" y="1120" />
              <mxPoint x="407" y="1120" />
            </Array>
          </mxGeometry>
        </mxCell>
        <mxCell id="pSkCP-MCvUBBRDY2Ks71-35" value="for (int i = 1; i &amp;lt;= k; i++) {" style="shape=hexagon;perimeter=hexagonPerimeter2;whiteSpace=wrap;html=1;fixedSize=1;" vertex="1" parent="1">
          <mxGeometry x="331" y="940" width="152.24" height="50" as="geometry" />
        </mxCell>
        <mxCell id="pSkCP-MCvUBBRDY2Ks71-39" style="edgeStyle=orthogonalEdgeStyle;rounded=0;orthogonalLoop=1;jettySize=auto;html=1;entryX=0;entryY=0.5;entryDx=0;entryDy=0;" edge="1" parent="1" source="pSkCP-MCvUBBRDY2Ks71-37" target="pSkCP-MCvUBBRDY2Ks71-35">
          <mxGeometry relative="1" as="geometry">
            <Array as="points">
              <mxPoint x="408" y="1110" />
              <mxPoint x="309" y="1110" />
              <mxPoint x="309" y="965" />
            </Array>
          </mxGeometry>
        </mxCell>
        <mxCell id="pSkCP-MCvUBBRDY2Ks71-37" value="cout &amp;lt;&amp;lt; m[k - i] &amp;lt;&amp;lt; &quot; &quot;;" style="shape=parallelogram;perimeter=parallelogramPerimeter;whiteSpace=wrap;html=1;fixedSize=1;" vertex="1" parent="1">
          <mxGeometry x="329.25" y="1030" width="157" height="40" as="geometry" />
        </mxCell>
        <mxCell id="pSkCP-MCvUBBRDY2Ks71-46" value="" style="edgeStyle=orthogonalEdgeStyle;rounded=0;orthogonalLoop=1;jettySize=auto;html=1;" edge="1" parent="1" source="pSkCP-MCvUBBRDY2Ks71-43" target="pSkCP-MCvUBBRDY2Ks71-45">
          <mxGeometry relative="1" as="geometry" />
        </mxCell>
        <mxCell id="pSkCP-MCvUBBRDY2Ks71-48" style="edgeStyle=orthogonalEdgeStyle;rounded=0;orthogonalLoop=1;jettySize=auto;html=1;" edge="1" parent="1" source="pSkCP-MCvUBBRDY2Ks71-43" target="pSkCP-MCvUBBRDY2Ks71-49">
          <mxGeometry relative="1" as="geometry">
            <mxPoint x="580" y="1290" as="targetPoint" />
          </mxGeometry>
        </mxCell>
        <mxCell id="pSkCP-MCvUBBRDY2Ks71-43" value="for (int i = 1; i &amp;lt;= n - k; i++) {" style="shape=hexagon;perimeter=hexagonPerimeter2;whiteSpace=wrap;html=1;fixedSize=1;" vertex="1" parent="1">
          <mxGeometry x="313.63" y="1150" width="189" height="50" as="geometry" />
        </mxCell>
        <mxCell id="pSkCP-MCvUBBRDY2Ks71-47" style="edgeStyle=orthogonalEdgeStyle;rounded=0;orthogonalLoop=1;jettySize=auto;html=1;entryX=0;entryY=0.5;entryDx=0;entryDy=0;" edge="1" parent="1" source="pSkCP-MCvUBBRDY2Ks71-45" target="pSkCP-MCvUBBRDY2Ks71-43">
          <mxGeometry relative="1" as="geometry">
            <Array as="points">
              <mxPoint x="407" y="1290" />
              <mxPoint x="294" y="1290" />
              <mxPoint x="294" y="1175" />
            </Array>
          </mxGeometry>
        </mxCell>
        <mxCell id="pSkCP-MCvUBBRDY2Ks71-45" value="cout &amp;lt;&amp;lt; m[n - i] &amp;lt;&amp;lt; &quot; &quot;;" style="shape=parallelogram;perimeter=parallelogramPerimeter;whiteSpace=wrap;html=1;fixedSize=1;" vertex="1" parent="1">
          <mxGeometry x="323.62" y="1230" width="166.38" height="40" as="geometry" />
        </mxCell>
        <mxCell id="pSkCP-MCvUBBRDY2Ks71-49" value="return 0;" style="ellipse;whiteSpace=wrap;html=1;" vertex="1" parent="1">
          <mxGeometry x="520" y="1250" width="120" height="80" as="geometry" />
        </mxCell>
        <mxCell id="pSkCP-MCvUBBRDY2Ks71-50" value="" style="endArrow=none;dashed=1;html=1;rounded=0;" edge="1" parent="1">
          <mxGeometry width="50" height="50" relative="1" as="geometry">
            <mxPoint x="400" y="140" as="sourcePoint" />
            <mxPoint x="520" y="140" as="targetPoint" />
          </mxGeometry>
        </mxCell>
        <mxCell id="pSkCP-MCvUBBRDY2Ks71-51" value="&lt;div&gt;#include &amp;lt;iostream&amp;gt;&lt;/div&gt;&lt;div&gt;#include &amp;lt;locale&amp;gt;&lt;/div&gt;&lt;div&gt;using namespace std;&lt;/div&gt;&lt;div&gt;&lt;br&gt;&lt;/div&gt;&lt;div&gt;int main() {&lt;/div&gt;&lt;div&gt;setlocale(LC_ALL, &quot;Rus&quot;);&lt;span style=&quot;&quot;&gt;&lt;/span&gt;&lt;/div&gt;&lt;div&gt;&lt;span style=&quot;&quot;&gt;&lt;span style=&quot;&quot;&gt;&lt;span style=&quot;white-space: pre;&quot;&gt;&amp;nbsp;&amp;nbsp;&amp;nbsp;&amp;nbsp;&lt;/span&gt;&lt;/span&gt;int k,n, m[100];&lt;/span&gt;&lt;/div&gt;" style="text;html=1;align=left;verticalAlign=middle;resizable=0;points=[];autosize=1;strokeColor=none;fillColor=none;" vertex="1" parent="1">
          <mxGeometry x="530" y="80" width="160" height="110" as="geometry" />
        </mxCell>
        <mxCell id="pSkCP-MCvUBBRDY2Ks71-52" value="" style="shape=partialRectangle;whiteSpace=wrap;html=1;bottom=1;right=1;left=1;top=0;fillColor=none;routingCenterX=-0.5;direction=south;" vertex="1" parent="1">
          <mxGeometry x="520" y="80" width="60" height="120" as="geometry" />
        </mxCell>
        <mxCell id="pSkCP-MCvUBBRDY2Ks71-53" value="" style="shape=partialRectangle;whiteSpace=wrap;html=1;bottom=1;right=1;left=1;top=0;fillColor=none;routingCenterX=-0.5;direction=north;" vertex="1" parent="1">
          <mxGeometry x="650" y="80" width="60" height="120" as="geometry" />
        </mxCell>
      </root>
    </mxGraphModel>
  </diagram>
</mxfile>
